<svg width="119" height="122" viewBox="0 0 119 122" fill="none" xmlns="http://www.w3.org/2000/svg">
<path d="M89.9221 49.5441C92.7115 49.5441 95.2894 49.8471 98.4166 50.4969L96.1882 55.3095C94.4555 54.9629 96.0495 55.2631 94.7401 55.1331V55.8266L94.8243 58.6422L94.8663 62.2817C94.9086 63.1912 94.9086 64.1012 94.9511 65.011V66.8307C94.9511 72.5497 94.4863 75.2356 93.0918 77.445C91.0633 80.6947 87.5557 82.2976 82.5692 82.2976C80.0336 82.2976 77.8366 81.9077 75.5542 80.9977V74.8458H75.5545C77.8368 76.0588 80.1187 76.6217 82.5273 76.6217C86.7951 76.6217 88.6124 74.8458 88.6124 70.5997V70.4697C87.3447 71.1193 86.0768 71.3795 84.3868 71.3795C78.6817 71.3795 75.0468 67.5236 75.0468 61.415C75.0468 53.8327 80.4142 49.5441 89.9221 49.5441ZM30.8911 49.9773V65.4439C30.8911 70.773 30.5108 73.3289 29.3699 75.5386C28.3132 77.6619 26.9185 79.0046 24.0451 80.4778L18.0019 77.5317C20.8756 76.1454 22.2701 74.9327 23.1574 73.069C24.0873 71.1629 24.3834 68.9532 24.3834 63.1479V49.9773H30.8911ZM108.52 49.4142C115.027 49.4142 119 53.6169 119 60.4186C119 67.3942 114.859 71.7699 108.266 71.7699C101.758 71.7699 97.7433 67.5672 97.7433 60.8088C97.7435 53.7896 101.885 49.4142 108.52 49.4142ZM43.4431 49.5011C46.7816 49.5011 48.9789 50.4105 49.9511 52.187C50.5001 53.1834 50.6692 54.483 50.6692 57.2562V70.8163C47.7529 71.2495 44.0767 71.5531 41.3723 71.5531C35.921 71.5531 33.4696 69.6028 33.4696 65.2706C33.4696 60.5913 36.7235 58.4253 44.7108 57.7319V56.2589C44.7108 55.0459 44.1192 54.613 42.4709 54.613C40.0623 54.613 37.3577 55.3061 34.8218 56.6494V51.4936H34.822C37.696 50.1076 40.4426 49.5011 43.4431 49.5011ZM20.5381 39.6738V70.5567C17.1996 71.2065 14.7485 71.4664 12.0863 71.4664C4.14137 71.4664 0 67.7841 0 60.7219C0 53.9199 4.39518 49.5011 11.1987 49.5011C12.2551 49.5011 13.058 49.5874 14.0301 49.8474V39.6738H20.5381ZM64.0654 49.5011C67.4039 49.5011 69.8128 50.2806 71.2501 51.7971C72.6023 53.2264 73.0245 54.786 73.0245 58.1226V71.2062H66.5166V58.3825C66.5166 55.8266 65.6714 54.8729 63.3474 54.8729C62.46 54.8729 61.6571 54.9596 60.3466 55.3495V71.2062H53.8389V51.017C57.6842 49.9773 60.8537 49.5011 64.0654 49.5011ZM45.0066 62.1082C40.6959 62.5414 39.3014 63.2348 39.3014 64.9676C39.3014 66.2673 40.1046 66.8738 41.8793 66.8738C42.8515 66.8738 43.7386 66.7874 45.0066 66.5708V62.1082ZM108.435 54.7863C105.857 54.7863 104.378 56.9096 104.378 60.5916C104.378 64.2745 105.857 66.3973 108.392 66.3973C110.886 66.3973 112.365 64.2742 112.365 60.5916C112.365 56.9526 110.928 54.7863 108.435 54.7863ZM11.8328 54.8729C8.53655 54.8729 6.63475 56.9526 6.63475 60.5916C6.63475 64.1445 8.45204 66.094 11.7905 66.094C12.5086 66.094 13.1005 66.0507 14.0301 65.921V55.2192C13.2695 54.9596 12.6357 54.8729 11.8328 54.8729ZM84.0488 55.869C82.4855 56.7791 81.6821 58.4256 81.6821 60.7649C81.6821 64.1012 83.2884 66.0074 86.1618 66.0074C87.0492 66.0074 87.7678 65.8338 88.6127 65.5741V63.2781C88.6127 62.4983 88.5707 61.6313 88.5707 60.7219L88.5287 57.6461L88.4862 55.4364V54.9162H87.8098C86.5424 54.8729 85.0634 55.2192 84.0488 55.869ZM30.8911 39.7093V46.5547H24.3834V39.7093H30.8911Z" fill="#092E20"/>
</svg>
