<svg width="81" height="74" viewBox="0 0 81 74" fill="none" xmlns="http://www.w3.org/2000/svg">
<g clip-path="url(#clip0_319_134)">
<path d="M60.4413 58.3547H60.1362V58.1987H60.9578V58.3547H60.6545V59.1329H60.4413V58.3547ZM62.0798 58.3953H62.075L61.7725 59.1331H61.6342L61.3338 58.3953H61.3302V59.1331H61.1291V58.199H61.425L61.7035 58.8605L61.9811 58.199H62.276V59.1331H62.0797L62.0798 58.3953Z" fill="#E76F00"/>
<path d="M33.1235 39.2535C33.1235 39.2535 31.0003 40.3815 34.6344 40.7632C39.037 41.222 41.2872 41.1562 46.1389 40.3173C46.1389 40.3173 47.4144 41.048 49.1958 41.6809C38.3196 45.9394 24.5807 41.4342 33.1235 39.2535ZM31.7944 33.6964C31.7944 33.6964 29.4131 35.3067 33.0499 35.6504C37.7529 36.0937 41.467 36.1299 47.8938 34.9993C47.8938 34.9993 48.7828 35.8226 50.1806 36.2729C37.0304 39.7858 22.3836 36.5499 31.7944 33.6964Z" fill="#5382A1"/>
<path d="M42.9986 24.2696C45.6785 27.0884 42.2946 29.6251 42.2946 29.6251C42.2946 29.6251 49.099 26.4159 45.9741 22.3972C43.0553 18.6493 40.817 16.7874 52.9342 10.3671C52.9344 10.367 33.9142 14.7068 42.9986 24.2696Z" fill="#E76F00"/>
<path d="M57.3832 43.3639C57.3832 43.3639 58.9544 44.5467 55.6529 45.4615C49.375 47.199 29.5235 47.7237 24.0089 45.5309C22.0265 44.7429 25.744 43.6495 26.9134 43.4201C28.133 43.1785 28.8299 43.2235 28.8299 43.2235C26.6253 41.8047 14.5802 46.0093 22.7116 47.2136C44.887 50.4991 63.1354 45.7342 57.3832 43.3639ZM34.1445 27.9386C34.1445 27.9386 24.0468 30.1297 30.5686 30.9253C33.3223 31.2622 38.8118 31.186 43.925 30.7945C48.1039 30.4725 52.3002 29.7879 52.3002 29.7879C52.3002 29.7879 50.8266 30.3644 49.7606 31.0293C39.5065 33.4932 19.6976 32.3469 25.4003 29.8268C30.2231 27.697 34.1445 27.9386 34.1445 27.9386ZM52.2585 37.1887C62.6822 32.2402 57.8629 27.4846 54.4988 28.1254C53.6743 28.2822 53.3066 28.4181 53.3066 28.4181C53.3066 28.4181 53.6129 27.98 54.1972 27.7904C60.8522 25.6529 65.9703 34.0946 52.0489 37.4382C52.0489 37.4382 52.2105 37.3066 52.2585 37.1887Z" fill="#5382A1"/>
<path d="M45.9741 0C45.9741 0 51.7469 5.27557 40.4989 13.3883C31.479 19.8958 38.4421 23.6063 40.4951 27.8458C35.2303 23.5059 31.3664 19.6856 33.9586 16.13C37.7631 10.9107 48.3033 8.38014 45.9741 0Z" fill="#E76F00"/>
<path d="M35.1689 50.5979C45.1743 51.183 60.5389 50.2732 60.9026 45.9482C60.9026 45.9482 60.2033 47.5877 52.6336 48.89C44.0939 50.358 33.561 50.1868 27.314 49.2458C27.3143 49.2455 28.593 50.2126 35.1689 50.5979Z" fill="#5382A1"/>
<path d="M33.5291 67.1246C32.5852 67.8725 31.5883 68.2924 30.6937 68.2924C29.4168 68.2924 28.7269 67.5929 28.7269 66.4709C28.7269 65.2573 29.4662 64.37 32.4316 64.37H33.5289L33.5291 67.1246ZM36.1335 69.8092V61.4992C36.1335 59.3762 34.8082 57.9756 31.6129 57.9756C29.7475 57.9756 28.1134 58.3964 26.7853 58.9331L27.1686 60.4041C28.2143 60.0534 29.5679 59.727 30.8965 59.727C32.7372 59.727 33.5291 60.4041 33.5291 61.8039V62.8543H32.6104C28.1381 62.8543 26.1207 64.4403 26.1207 66.8207C26.1207 68.8753 27.4502 70.0431 29.9534 70.0431C31.5624 70.0431 32.7636 69.4361 33.8864 68.5479L34.0902 69.8094L36.1335 69.8092ZM44.8254 69.8092H41.5772L37.6678 58.186H40.5047L42.9303 65.3272L43.4695 67.475C44.6967 64.3697 45.5648 61.2193 45.9989 58.186H48.7584C48.0189 62.0133 46.6885 66.2144 44.8254 69.8092ZM57.2866 67.1246C56.3409 67.8725 55.3424 68.2924 54.4476 68.2924C53.173 68.2924 52.4813 67.5929 52.4813 66.4709C52.4813 65.2573 53.2221 64.37 56.1873 64.37H57.2866V67.1246ZM59.8907 69.8092V61.4992C59.8907 59.3762 58.5623 57.9756 55.3704 57.9756C53.5038 57.9756 51.8691 58.3964 50.5416 58.9331L50.9245 60.4041C51.9705 60.0534 53.3266 59.727 54.6541 59.727C56.4935 59.727 57.2866 60.4041 57.2866 61.8039V62.8543H56.3662C51.8928 62.8543 49.8761 64.4403 49.8761 66.8207C49.8761 68.8753 51.2045 70.0431 53.7073 70.0431C55.3174 70.0431 56.518 69.4361 57.6427 68.5479L57.8472 69.8094L59.8907 69.8092ZM23.265 71.7829C22.5225 72.7732 21.3233 73.5567 20.0105 74L18.7246 72.6176C19.7239 72.1491 20.5809 71.3926 20.9791 70.688C21.3235 70.0613 21.4661 69.2536 21.4661 67.322V54.0524H24.2331V67.1402C24.233 69.7224 24.007 70.7656 23.265 71.7829Z" fill="#E76F00"/>
</g>
<defs>
<clipPath id="clip0_319_134">
<rect width="81" height="74" fill="white"/>
</clipPath>
</defs>
</svg>
