<svg width="55" height="56" viewBox="0 0 55 56" fill="none" xmlns="http://www.w3.org/2000/svg">
<g clip-path="url(#clip0_319_148)">
<path fill-rule="evenodd" clip-rule="evenodd" d="M54.5886 12.4534C54.6089 12.5268 54.6192 12.6025 54.6194 12.6785V24.4945C54.6194 24.6461 54.5785 24.7951 54.5009 24.9263C54.4232 25.0576 54.3116 25.1664 54.1772 25.2419L44.0473 30.9517V42.2691C44.0473 42.5771 43.8801 42.8614 43.6073 43.0165L22.462 54.9337C22.4136 54.9606 22.3608 54.9779 22.308 54.9962C22.2882 55.0026 22.2695 55.0145 22.2486 55.0199C22.1008 55.058 21.9454 55.058 21.7976 55.0199C21.7734 55.0134 21.7514 55.0005 21.7283 54.9919C21.6799 54.9746 21.6293 54.9596 21.5831 54.9337L0.4422 43.0165C0.307898 42.9409 0.196307 42.8321 0.118673 42.7009C0.0410392 42.5697 0.000106413 42.4207 0 42.2691L0 6.82109C0 6.74355 0.011 6.66817 0.0308 6.59494C0.0374 6.57017 0.0528 6.54755 0.0616 6.52278C0.0781 6.47755 0.0935 6.43125 0.1177 6.38925C0.1342 6.36125 0.1584 6.33863 0.1782 6.31278C0.2035 6.27832 0.2266 6.24278 0.2563 6.21263C0.2816 6.18786 0.3146 6.16955 0.3432 6.14802C0.3751 6.12217 0.4037 6.09417 0.44 6.07371L11.0121 0.115092C11.1459 0.0396865 11.2977 0 11.4521 0C11.6065 0 11.7583 0.0396865 11.8921 0.115092L22.4631 6.07371H22.4653C22.5005 6.09525 22.5302 6.12217 22.5621 6.14694C22.5907 6.16848 22.6226 6.18786 22.6479 6.21155C22.6787 6.24278 22.7007 6.27832 22.7271 6.31278C22.7458 6.33863 22.7711 6.36125 22.7865 6.38925C22.8118 6.43232 22.8261 6.47755 22.8437 6.52278C22.8525 6.54755 22.8679 6.57017 22.8745 6.59602C22.8948 6.6694 22.9051 6.74507 22.9053 6.82109V28.9616L31.7141 23.9959V12.6774C31.7141 12.602 31.7251 12.5256 31.7449 12.4534C31.7526 12.4276 31.7669 12.4049 31.7757 12.3802C31.7933 12.3349 31.8087 12.2886 31.8329 12.2466C31.8494 12.2186 31.8736 12.196 31.8923 12.1702C31.9187 12.1357 31.9407 12.1002 31.9715 12.07C31.9968 12.0452 32.0287 12.0269 32.0573 12.0054C32.0903 11.9796 32.1189 11.9516 32.1541 11.9311L42.7273 5.97248C42.8611 5.89697 43.0129 5.85722 43.1673 5.85722C43.3218 5.85722 43.4735 5.89697 43.6073 5.97248L54.1783 11.9311C54.2157 11.9526 54.2443 11.9796 54.2773 12.0043C54.3048 12.0259 54.3367 12.0452 54.362 12.0689C54.3928 12.1002 54.4148 12.1357 54.4412 12.1702C54.461 12.196 54.4852 12.2186 54.5006 12.2466C54.5259 12.2886 54.5402 12.3349 54.5578 12.3802C54.5677 12.4049 54.582 12.4276 54.5886 12.4534ZM52.8572 23.9959V14.17L49.1579 16.2549L44.0473 19.1357V28.9616L52.8583 23.9959H52.8572ZM42.2862 41.7705V31.9382L37.2592 34.7489L22.9042 42.7699V52.6948L42.2862 41.7705ZM1.7622 8.31263V41.7705L21.142 52.6937V42.7709L11.0176 37.1612L11.0143 37.1591L11.0099 37.1569C10.9758 37.1376 10.9472 37.1096 10.9153 37.0859C10.8878 37.0643 10.8559 37.0471 10.8317 37.0234L10.8295 37.0202C10.8009 36.9932 10.7811 36.9599 10.7569 36.9297C10.7349 36.9006 10.7085 36.8759 10.6909 36.8457L10.6898 36.8425C10.67 36.8102 10.6579 36.7714 10.6436 36.7348C10.6293 36.7025 10.6106 36.6723 10.6018 36.6379C10.5908 36.5969 10.5886 36.5528 10.5842 36.5108C10.5798 36.4785 10.571 36.4462 10.571 36.4139V36.4117V13.2783L5.4615 10.3965L1.7622 8.31263ZM11.4532 1.85755L2.6455 6.82109L11.451 11.7846L20.2576 6.82002L11.451 1.85755H11.4532ZM16.0336 32.8342L21.1431 29.9545V8.31263L17.4438 10.3976L12.3332 13.2783V34.9202L16.0336 32.8342ZM43.1673 7.71494L34.3607 12.6785L43.1673 17.642L51.9728 12.6774L43.1673 7.71494ZM42.2862 19.1357L37.1756 16.2549L33.4763 14.17V23.9959L38.5858 26.8756L42.2862 28.9616V19.1357ZM22.022 41.2783L34.9393 34.0586L41.3963 30.4509L32.5963 25.4906L22.4642 31.2016L13.2297 36.4063L22.022 41.2783Z" fill="#FF2D20"/>
</g>
<defs>
<clipPath id="clip0_319_148">
<rect width="55" height="56" fill="white"/>
</clipPath>
</defs>
</svg>
