<svg width="68" height="67" viewBox="0 0 68 67" fill="none" xmlns="http://www.w3.org/2000/svg">
<path fill-rule="evenodd" clip-rule="evenodd" d="M39.409 1.11148C38.944 1.11148 38.5122 1.21312 38.1136 1.34863C38.9606 1.92457 39.4256 2.68685 39.6581 3.55076C39.6747 3.66934 39.7079 3.75404 39.7245 3.87261C39.7412 3.97425 39.7577 4.07589 39.7577 4.17752C39.8242 5.66819 39.3758 5.85453 39.0602 6.73538C38.5786 7.87033 38.7114 9.08996 39.2927 10.0725C39.3425 10.191 39.409 10.3265 39.492 10.4451C38.8609 6.15944 42.3652 5.51574 43.0128 4.17752C43.0627 3.0087 42.116 2.22948 41.3687 1.68742C40.6546 1.247 40.0069 1.11148 39.409 1.11148ZM44.6902 2.07703C44.6238 2.46664 44.6736 2.365 44.657 2.56827C44.6404 2.70379 44.6404 2.87319 44.6239 3.0087C44.5907 3.14422 44.5574 3.27973 44.5076 3.41525C44.4744 3.55076 44.4246 3.68628 44.3747 3.82179C44.3083 3.95731 44.2585 4.07588 44.1921 4.2114C44.1422 4.27919 44.109 4.34691 44.0592 4.41468C44.026 4.46549 43.9927 4.51631 43.9595 4.56713C43.8765 4.68571 43.7935 4.80428 43.7104 4.90592C43.6108 5.00756 43.5277 5.12613 43.4115 5.21083V5.22779C43.3118 5.31249 43.2122 5.41413 43.0959 5.49882C42.7472 5.76985 42.3486 5.97313 41.9832 6.22722C41.867 6.31191 41.7507 6.37968 41.6511 6.48131C41.5348 6.56601 41.4352 6.6507 41.3355 6.75234C41.2193 6.85398 41.1362 6.95562 41.0366 7.07419C40.9535 7.17583 40.8539 7.2944 40.7875 7.41298C40.7044 7.53155 40.6214 7.65013 40.555 7.76871C40.4885 7.90422 40.4387 8.0228 40.3723 8.15831C40.3225 8.29383 40.2726 8.41241 40.2394 8.54792C40.1896 8.70038 40.1564 8.83589 40.1232 8.97141C40.1065 9.0392 40.1065 9.12386 40.09 9.19162C40.0733 9.25941 40.0733 9.32714 40.0568 9.3949C40.0568 9.53041 40.0402 9.68287 40.0402 9.81838C40.0402 9.92002 40.0402 10.0217 40.0568 10.1233C40.0568 10.2588 40.0734 10.3943 40.1066 10.5468C40.1232 10.6823 40.1564 10.8178 40.1896 10.9533C40.2395 11.0888 40.2727 11.2244 40.3225 11.3599C40.3557 11.4446 40.4055 11.5293 40.4388 11.597L36.619 10.0894C35.9713 9.90308 35.3402 9.73369 34.6925 9.58123C34.3437 9.49654 33.995 9.41183 33.6462 9.32714C32.6497 9.12387 31.6367 8.97141 30.6236 8.86978C30.5904 8.86978 30.5738 8.85281 30.5406 8.85281C29.5441 8.75118 28.5642 8.70036 27.5678 8.70036C26.837 8.70036 26.1063 8.73421 25.3921 8.78506C24.3791 8.85284 23.366 8.98833 22.3529 9.15772C22.1038 9.19158 21.8547 9.24242 21.6056 9.29324C21.0907 9.39487 20.5925 9.51345 20.1109 9.63203C19.8618 9.69981 19.6126 9.76755 19.3635 9.8353C19.1144 9.93694 18.8819 10.0555 18.6494 10.1572C18.4667 10.2418 18.284 10.3265 18.1013 10.4112C18.0682 10.4282 18.0349 10.4282 18.0183 10.4451C17.8522 10.5298 17.7028 10.5975 17.5533 10.6823C17.5035 10.6992 17.4702 10.7161 17.437 10.7331C17.2544 10.8178 17.0717 10.9194 16.9222 11.0041C16.8059 11.0549 16.6897 11.1227 16.59 11.1735C16.5402 11.2073 16.4738 11.2413 16.4406 11.2582C16.2911 11.3429 16.1416 11.4276 16.0088 11.5123C15.8593 11.597 15.7264 11.6817 15.6102 11.7664C15.4939 11.8511 15.3777 11.9188 15.278 12.0035C15.2614 12.0205 15.2448 12.0205 15.2282 12.0374C15.1286 12.1052 15.0123 12.1898 14.9127 12.2745C14.9127 12.2745 14.896 12.2915 14.8795 12.3084C14.7964 12.3762 14.7134 12.4439 14.6304 12.5117C14.5972 12.5286 14.5639 12.5625 14.5307 12.5794C14.4477 12.6472 14.3646 12.7319 14.2816 12.7997C14.265 12.8335 14.2318 12.8505 14.2151 12.8674C14.1155 12.9691 14.0158 13.0538 13.9162 13.1554C13.8996 13.1554 13.8996 13.1724 13.883 13.1893C13.7834 13.274 13.6837 13.3756 13.5841 13.4772C13.5674 13.4942 13.5674 13.5111 13.5509 13.5111C13.4678 13.5958 13.3848 13.6805 13.3018 13.7821C13.2686 13.816 13.2187 13.8499 13.1855 13.8837C13.1025 13.9854 13.0028 14.087 12.9032 14.1887C12.8865 14.2225 12.8534 14.2395 12.8367 14.2734C12.7039 14.4089 12.5876 14.5444 12.4547 14.6799C12.4381 14.6969 12.4216 14.7138 12.4049 14.7307C12.1392 15.0187 11.8569 15.3067 11.5579 15.5608C11.259 15.8318 10.9434 16.0859 10.6279 16.3061C10.2957 16.5433 9.98019 16.7465 9.63142 16.9498C9.29927 17.1361 8.95051 17.3055 8.58514 17.458C8.23637 17.6104 7.87101 17.746 7.50564 17.8645C6.80811 18.017 6.09397 18.3049 5.47949 18.3558C5.34663 18.3558 5.19716 18.3896 5.0643 18.4066C4.91483 18.4404 4.78197 18.4744 4.64911 18.5082C4.51625 18.559 4.38338 18.6099 4.25052 18.6607C4.11766 18.7115 3.9848 18.7793 3.85194 18.847C3.73568 18.9317 3.60282 18.9995 3.48656 19.0842C3.37031 19.1689 3.25405 19.2705 3.15441 19.3721C3.03816 19.4568 2.9219 19.5754 2.82225 19.677C2.7226 19.7956 2.62296 19.8973 2.53992 20.0158C2.45688 20.1513 2.35724 20.2699 2.2908 20.4054C2.20777 20.524 2.12473 20.6595 2.05829 20.795C1.99184 20.9475 1.92543 21.083 1.87561 21.2355C1.82579 21.371 1.77596 21.5234 1.72614 21.6759C1.69295 21.8114 1.65968 21.9469 1.6431 22.0824C1.6431 22.0994 1.62647 22.1163 1.62647 22.1333C1.59328 22.2857 1.59328 22.489 1.57665 22.5906C1.56001 22.7092 1.54346 22.8108 1.54346 22.9294C1.54346 22.9972 1.54346 23.0819 1.56009 23.1496C1.57672 23.2682 1.59328 23.3698 1.62655 23.4715C1.65974 23.5731 1.69301 23.6748 1.7428 23.7764V23.7934C1.79262 23.895 1.85906 23.9966 1.92548 24.0983C1.99194 24.1999 2.05835 24.3015 2.14139 24.4032C2.22442 24.4879 2.32407 24.5895 2.42372 24.6742C2.52336 24.7758 2.62301 24.8605 2.73926 24.9452C3.13785 25.301 3.2375 25.4196 3.75234 25.6906C3.83537 25.7414 3.91842 25.7753 4.01806 25.8261C4.0347 25.8261 4.05125 25.8431 4.06789 25.8431C4.06789 25.8769 4.06789 25.8939 4.08452 25.9278C4.10116 26.0633 4.13435 26.1988 4.16756 26.3343C4.20075 26.4868 4.25061 26.6223 4.30043 26.7409C4.35025 26.8425 4.38347 26.9441 4.43329 27.0458C4.44992 27.0796 4.46648 27.1136 4.48311 27.1305C4.54957 27.266 4.61597 27.3846 4.6824 27.5031C4.76544 27.6217 4.84848 27.7403 4.93152 27.8589C5.01455 27.9605 5.1142 28.0791 5.21385 28.1807C5.3135 28.2823 5.41314 28.367 5.5294 28.4687C5.5294 28.4687 5.54604 28.4857 5.56259 28.4857C5.66224 28.5704 5.76188 28.6551 5.86153 28.7228C5.97778 28.8075 6.09404 28.8753 6.2269 28.943C6.34316 29.0108 6.47602 29.0785 6.60888 29.1294C6.70852 29.1802 6.82477 29.2141 6.94103 29.2479C6.95767 29.2649 6.97422 29.2649 7.00749 29.2818C7.07395 29.2988 7.15695 29.3156 7.22339 29.3326C7.17356 30.2473 7.15693 31.1112 7.28984 31.4162C7.43931 31.7549 8.17005 30.7216 8.90079 29.5359C8.80115 30.7047 8.73471 32.0768 8.90079 32.4834C9.08348 32.9068 10.0799 31.5856 10.9435 30.1288C22.7184 27.3507 33.4636 35.651 34.593 47.3731C34.3771 45.5437 32.1682 44.5273 31.1552 44.7814C30.6569 46.0349 29.8099 47.6441 28.4481 48.6436C28.5644 47.5256 28.5146 46.3737 28.282 45.2557C27.9167 46.8141 27.2025 48.2709 26.2227 49.5244C24.6449 49.643 23.0672 48.8638 22.2368 47.695C22.1703 47.6441 22.1538 47.5425 22.1039 47.4748C22.0541 47.3562 22.0043 47.2376 21.9711 47.119C21.9213 47.0005 21.888 46.8819 21.8714 46.7633C21.8548 46.6447 21.8548 46.5261 21.8548 46.3906C21.8548 46.3059 21.8548 46.2212 21.8548 46.1365C21.8714 46.018 21.9046 45.8994 21.9378 45.7808C21.971 45.6622 22.0043 45.5437 22.0541 45.4251C22.1205 45.3065 22.1703 45.1879 22.2534 45.0694C22.5357 44.2563 22.5357 43.5956 22.0209 43.206C21.9212 43.1382 21.8216 43.0874 21.7053 43.0366C21.6389 43.0197 21.5559 42.9858 21.4894 42.9688C21.4396 42.9519 21.4064 42.935 21.3566 42.918C21.2403 42.8842 21.1241 42.8502 21.0078 42.8333C20.8915 42.7995 20.7753 42.7825 20.659 42.7825C20.5428 42.7655 20.4099 42.7486 20.2937 42.7486C20.2106 42.7486 20.1276 42.7656 20.0446 42.7656C19.9117 42.7656 19.7954 42.7826 19.6792 42.8164C19.5629 42.8334 19.4467 42.8503 19.3304 42.8842C19.2142 42.9181 19.0979 42.952 18.9817 43.0028C18.8654 43.0536 18.7658 43.1044 18.6495 43.1552C18.5499 43.2061 18.4502 43.2738 18.334 43.3246C14.4644 45.8994 16.7728 51.9299 19.4135 53.6746C18.417 53.861 17.4039 54.0812 17.1216 54.3014C17.105 54.3184 17.0884 54.3353 17.0884 54.3353C17.8025 54.7757 18.5499 55.1483 19.3304 55.4702C20.3933 55.8259 21.5227 56.1478 22.0209 56.2833V56.3003C23.3993 56.5882 24.7944 56.6899 26.2061 56.6052C33.5633 56.08 39.5919 50.3714 40.688 42.8503C40.7212 43.0028 40.7545 43.1383 40.7877 43.2908C40.8375 43.5957 40.9039 43.9175 40.9371 44.2394V44.2563C40.9703 44.4088 40.9869 44.5613 41.0036 44.6968V44.7646C41.0202 44.917 41.0368 45.0695 41.0368 45.205C41.0534 45.3913 41.07 45.5776 41.07 45.764V46.035C41.07 46.1197 41.0866 46.2213 41.0866 46.306C41.0866 46.4077 41.07 46.5093 41.07 46.611V46.8481C41.07 46.9667 41.0533 47.0683 41.0533 47.1869C41.0533 47.2547 41.0533 47.3224 41.0367 47.4071C41.0367 47.5257 41.02 47.6443 41.02 47.7798C41.0034 47.8306 41.0034 47.8814 41.0034 47.9322C40.9868 48.0678 40.9702 48.1863 40.9536 48.3218C40.9536 48.3727 40.9536 48.4235 40.9369 48.4743C40.9203 48.6437 40.8871 48.7962 40.8705 48.9655V48.9825V48.9995C40.8373 49.1519 40.804 49.3213 40.7708 49.4738V49.5246C40.7376 49.6771 40.7044 49.8295 40.6712 49.982C40.6712 49.999 40.6546 50.0328 40.6546 50.0498C40.6214 50.2022 40.5881 50.3547 40.5383 50.5071V50.5579C40.4885 50.7273 40.4387 50.8798 40.4054 51.0322C40.3888 51.0492 40.3888 51.0661 40.3888 51.0661C40.339 51.2355 40.2892 51.4049 40.2394 51.5743C40.1729 51.7437 40.1231 51.8961 40.0567 52.0655C39.9902 52.2349 39.9404 52.4043 39.874 52.5568C39.8075 52.7262 39.7411 52.8786 39.6747 53.048H39.658C39.5916 53.2005 39.5252 53.3699 39.4421 53.5223C39.4255 53.5731 39.4089 53.607 39.3923 53.6409C39.3757 53.6579 39.3757 53.6747 39.3591 53.6917C38.2796 55.9108 36.6853 57.8588 34.6923 59.3834C34.5595 59.4681 34.4266 59.5697 34.2938 59.6713C34.2606 59.7052 34.2107 59.7222 34.1775 59.756C34.0612 59.8407 33.945 59.9254 33.8121 60.0101L33.862 60.1118H33.8786C34.1111 60.0779 34.3436 60.044 34.5761 60.0101H34.5927C35.0245 59.9423 35.4563 59.8577 35.8881 59.773C36.0044 59.756 36.1373 59.7222 36.2535 59.6883C36.3366 59.6713 36.403 59.6544 36.486 59.6375C36.6023 59.6205 36.7185 59.5866 36.8348 59.5697C36.9344 59.5358 37.0341 59.5188 37.1337 59.485C38.7945 59.0784 40.4055 58.5194 41.95 57.8588C39.3093 61.5346 35.7719 64.499 31.6366 66.4471C33.5465 66.3116 35.4563 65.9897 37.2998 65.4477C43.9927 63.4319 49.6227 58.8413 52.9941 52.6584C52.3132 56.5714 50.7853 60.2981 48.5266 63.5504C50.1376 62.4663 51.6157 61.2128 52.9609 59.7899C56.681 55.826 59.1224 50.795 59.9528 45.3913C60.5174 48.0678 60.6835 50.8289 60.4344 53.5562C72.4252 36.4981 61.4308 18.8134 56.8305 14.155C56.8139 14.1212 56.7973 14.1042 56.7973 14.0703C56.7807 14.0873 56.7807 14.0873 56.7807 14.1042C56.7807 14.0872 56.7807 14.0872 56.764 14.0703C56.764 14.2736 56.7474 14.4769 56.7308 14.6801C56.681 15.0697 56.6312 15.4424 56.5648 15.8151C56.4817 16.1877 56.3821 16.5604 56.2824 16.9331C56.1662 17.2888 56.0333 17.6615 55.8838 18.0172C55.7344 18.356 55.5683 18.7117 55.3856 19.0505C55.2029 19.3724 55.0036 19.7111 54.7877 20.0161C54.5718 20.3379 54.3393 20.6428 54.1068 20.9308C53.8577 21.2357 53.592 21.5067 53.3262 21.7778C53.1602 21.9302 53.0107 22.0657 52.8446 22.2012C52.7118 22.3198 52.5955 22.4215 52.4626 22.54C52.1637 22.7772 51.8648 22.9974 51.5326 23.2007C51.2171 23.4039 50.8849 23.6072 50.5528 23.7766C50.204 23.946 49.8552 24.0985 49.5065 24.2509C49.1577 24.3864 48.7923 24.505 48.427 24.6066C48.0616 24.7083 47.6796 24.793 47.3143 24.8607C46.9323 24.9285 46.5503 24.9624 46.1849 24.9963C45.9192 25.0132 45.6535 25.0301 45.3878 25.0301C45.0058 25.0301 44.6238 24.9963 44.2584 24.9623C43.8765 24.9285 43.4945 24.8776 43.1291 24.7929C42.7471 24.7251 42.3818 24.6235 42.0164 24.505H41.9998C42.3651 24.4711 42.7305 24.4372 43.0959 24.3694C43.4778 24.3017 43.8432 24.217 44.2086 24.1153C44.574 24.0137 44.9393 23.8951 45.2881 23.7596C45.6535 23.6241 46.0022 23.4547 46.3344 23.2853C46.6831 23.1159 46.9987 22.9296 47.3308 22.7263C47.6464 22.5061 47.9619 22.2859 48.2609 22.0487C48.5598 21.8116 48.8421 21.5575 49.1079 21.2865C49.3902 21.0324 49.6393 20.7444 49.8884 20.4564C50.1375 20.1515 50.3701 19.8466 50.586 19.5417C50.6191 19.4909 50.6524 19.4231 50.6856 19.3723C50.8517 19.1013 51.0178 18.8302 51.1672 18.5592C51.3499 18.2204 51.516 17.8816 51.6655 17.5259C51.8149 17.1702 51.9478 16.8144 52.064 16.4418C52.1803 16.086 52.2633 15.7134 52.3464 15.3407C52.4128 14.9511 52.4792 14.5784 52.5125 14.2058C52.5456 13.8162 52.5789 13.4266 52.5789 13.0539C52.5789 12.7829 52.5623 12.5118 52.5457 12.2408C52.5125 11.8512 52.4627 11.4785 52.4129 11.1059C52.3464 10.7162 52.2634 10.3436 52.1637 9.9709C52.0475 9.61518 51.9312 9.24251 51.7984 8.88679C51.6655 8.53105 51.4994 8.17532 51.3334 7.83653C51.1507 7.49775 50.968 7.15896 50.7687 6.83711C50.5528 6.51526 50.3369 6.21035 50.1044 5.90544C49.8553 5.61747 49.6062 5.3295 49.3404 5.04153C49.2076 4.90601 49.0581 4.75356 48.9086 4.61805C48.1613 4.02516 47.3807 3.46616 46.6002 2.95798C46.4839 2.89019 46.3843 2.8394 46.268 2.78858C45.7199 2.43285 45.2051 2.24642 44.6902 2.07703Z" fill="#E0234E"/>
</svg>
