<svg width="68" height="65" viewBox="0 0 68 65" fill="none" xmlns="http://www.w3.org/2000/svg">
<path fill-rule="evenodd" clip-rule="evenodd" d="M27.6599 4.0625C22.991 4.0625 19.2063 7.56545 19.2063 11.8866V17.3032H33.8374V18.8079H12.7035C8.03477 18.8079 4.25 22.3108 4.25 26.6319V38.3681C4.25 42.6892 8.03477 46.1921 12.7035 46.1921H17.5806V39.5718C17.5806 35.2507 21.3654 31.7476 26.0342 31.7476H41.6407C45.5912 31.7476 48.7936 28.7836 48.7936 25.1274V11.8866C48.7936 7.56545 45.009 4.0625 40.3402 4.0625H27.6599ZM25.7091 13.6921C27.3252 13.6921 28.6352 12.4796 28.6352 10.9838C28.6352 9.48803 27.3252 8.27545 25.7091 8.27545C24.0928 8.27545 22.7828 9.48803 22.7828 10.9838C22.7828 12.4796 24.0928 13.6921 25.7091 13.6921Z" fill="url(#paint0_linear_319_143)"/>
<path fill-rule="evenodd" clip-rule="evenodd" d="M40.3398 60.9375C45.0087 60.9375 48.7935 57.4346 48.7935 53.1135V47.6968H34.1622V46.1923H55.2962C59.9651 46.1923 63.7497 42.6892 63.7497 38.3681V26.6319C63.7497 22.3109 59.9651 18.8079 55.2962 18.8079H50.4191V25.4282C50.4191 29.7495 46.6343 33.2524 41.9657 33.2524H26.359C22.4085 33.2524 19.2061 36.2164 19.2061 39.8726V53.1135C19.2061 57.4346 22.9909 60.9375 27.6595 60.9375H40.3398ZM42.2908 51.308C40.6745 51.308 39.3645 52.5204 39.3645 54.0162C39.3645 55.512 40.6745 56.7245 42.2908 56.7245C43.9069 56.7245 45.2169 55.512 45.2169 54.0162C45.2169 52.5204 43.9069 51.308 42.2908 51.308Z" fill="url(#paint1_linear_319_143)"/>
<defs>
<linearGradient id="paint0_linear_319_143" x1="26.5219" y1="4.0625" x2="26.5219" y2="46.1921" gradientUnits="userSpaceOnUse">
<stop stop-color="#327EBD"/>
<stop offset="1" stop-color="#1565A7"/>
</linearGradient>
<linearGradient id="paint1_linear_319_143" x1="41.478" y1="18.8079" x2="41.478" y2="60.9375" gradientUnits="userSpaceOnUse">
<stop stop-color="#FFDA4B"/>
<stop offset="1" stop-color="#F9C600"/>
</linearGradient>
</defs>
</svg>
