<svg width="57" height="53" viewBox="0 0 57 53" fill="none" xmlns="http://www.w3.org/2000/svg">
<g clip-path="url(#clip0_319_153)">
<path d="M48.45 0H8.55C3.82797 0 0 3.55934 0 7.95V45.05C0 49.4407 3.82797 53 8.55 53H48.45C53.172 53 57 49.4407 57 45.05V7.95C57 3.55934 53.172 0 48.45 0Z" fill="#3178C6"/>
<path d="M25.9395 29.3984H33.0645V25.1543H13.1367V29.3984H20.2617V48.3418H25.9395V29.3984ZM35.291 47.3066C36.1928 47.7414 37.2949 48.0623 38.5195 48.2797C39.7441 48.4971 41.0801 48.6006 42.416 48.6006C43.752 48.6006 44.9766 48.4867 46.2012 48.2486C47.4258 48.0105 48.4277 47.6172 49.3184 47.1099C50.2201 46.5613 50.9883 45.8678 51.4336 44.9361C51.8789 44.0045 52.224 42.9693 52.224 41.6236C52.224 40.6816 52.0682 39.8639 51.7676 39.1392C51.467 38.4146 51.0328 37.7935 50.4316 37.276C49.8639 36.7273 49.207 36.2408 48.4277 35.8267C47.6484 35.4127 46.7578 34.9779 45.7559 34.5846C45.0211 34.3051 44.4199 34.0359 43.752 33.7668C43.173 33.4976 42.6721 33.2285 42.3047 32.9594C41.8928 32.6799 41.5811 32.39 41.3584 32.0898C41.1357 31.7793 41.0244 31.4377 41.0244 31.0547C41.0244 30.7027 41.1235 30.3818 41.325 30.092C41.5265 29.8021 41.8037 29.564 42.16 29.357C42.5162 29.15 42.9615 28.9947 43.4959 28.8808C44.0191 28.767 44.5981 28.7152 45.2772 28.7152C45.7447 28.7152 46.2346 28.7473 46.7244 28.8125C47.2365 28.8777 47.7598 28.9781 48.283 29.1127C48.8063 29.2473 49.3184 29.4129 49.8416 29.6199C50.3314 29.827 50.7879 30.0651 51.1775 30.3342V25.469C50.3314 25.1688 49.3963 24.941 48.3943 24.7961C47.3924 24.6512 46.2791 24.5787 44.9432 24.5787C43.6072 24.5787 42.3826 24.7133 41.158 24.9721C39.9334 25.2309 38.9314 25.6449 38.0408 26.2143C37.1391 26.7733 36.4822 27.4565 35.9256 28.3881C35.4023 29.2576 35.1463 30.2514 35.1463 31.4936C35.1463 33.0463 35.625 34.392 36.5936 35.4272C37.551 36.5658 39.0428 37.394 40.9354 38.2221C41.7035 38.5119 42.3826 38.8018 43.0506 39.0813C43.7186 39.3608 44.2752 39.6506 44.7205 39.9508C45.1992 40.251 45.5777 40.5823 45.8338 40.9342C46.1121 41.2862 46.2568 41.7002 46.2568 42.1764C46.2568 42.5076 46.17 42.8182 46.0008 43.108C45.8316 43.3979 45.5666 43.6463 45.2104 43.8533C44.8541 44.0604 44.4199 44.226 43.8744 44.3502C43.3512 44.4641 42.7611 44.5262 41.9818 44.5262C40.7572 44.5262 39.5326 44.3295 38.4193 43.9362C37.1947 43.5428 36.0814 42.9528 35.291 42.3379V47.3066Z" fill="white"/>
</g>
<defs>
<clipPath id="clip0_319_153">
<rect width="57" height="53" fill="white"/>
</clipPath>
</defs>
</svg>
